<?xml version="1.0" encoding="UTF-8"?>
<svg xmlns="http://www.w3.org/2000/svg" xmlns:xlink="http://www.w3.org/1999/xlink" width="1448px" height="378px" viewBox="0 0 1448 378" version="1.1">
<g id="surface1">
<path style=" stroke:none;fill-rule:nonzero;fill:rgb(99.607843%,99.607843%,99.607843%);fill-opacity:1;" d="M 874.464844 24.191406 C 874.730469 24.164062 875 24.140625 875.261719 24.117188 C 885.21875 23.265625 925.453125 21.742188 932.058594 27.449219 C 934.800781 29.816406 936.9375 35.292969 938.433594 38.632812 C 947.621094 59.035156 956.027344 79.871094 964.722656 100.484375 L 1014.929688 219.933594 L 1048.222656 299.382812 C 1049.847656 303.320312 1051.679688 307.246094 1053.277344 311.097656 C 1056.207031 318.429688 1060.722656 325.84375 1061.347656 333.847656 C 1062.054688 342.8125 1054.601562 349.859375 1045.867188 349.914062 C 1026.558594 350.023438 1007.277344 349.941406 987.984375 349.933594 L 871.875 349.886719 L 793.65625 349.914062 C 779.917969 349.945312 766.019531 350.164062 752.375 349.757812 C 745.011719 349.589844 737.46875 343.074219 737.722656 335.335938 C 738.21875 323.203125 746.582031 311.875 750.152344 300.628906 C 755.238281 284.640625 761.769531 284.035156 777.308594 284.191406 C 780.894531 284.226562 784.972656 284.148438 788.503906 284.132812 L 828.992188 284.003906 C 875.722656 284.015625 923.105469 284.300781 969.804688 283.644531 C 964.949219 273.410156 959.929688 260.304688 955.480469 249.558594 L 928.699219 184.789062 L 910.152344 140.097656 C 907.128906 132.765625 902.164062 121.785156 900.179688 114.574219 C 885.527344 147.527344 872.199219 181.203125 858.320312 214.492188 C 853.070312 227.082031 847.335938 244.125 840.9375 255.671875 C 839.21875 258.773438 837.046875 261.433594 833.832031 263.050781 C 827.578125 266.191406 791.5 265.964844 784.640625 263.628906 C 781.035156 262.394531 777.613281 260.082031 775.925781 256.5625 C 773.859375 252.308594 773.570312 247.414062 775.117188 242.945312 C 779.316406 230.882812 788.242188 211.539062 793.464844 199.3125 L 828.695312 116.898438 L 852.53125 60.859375 C 856.652344 51.140625 860.839844 40.546875 865.683594 31.203125 C 867.578125 27.539062 870.878906 25.917969 874.464844 24.191406 Z M 874.464844 24.191406 "/>
<path style=" stroke:none;fill-rule:nonzero;fill:rgb(99.607843%,99.607843%,99.607843%);fill-opacity:1;" d="M 519.804688 25.09375 C 549.917969 26.707031 598.707031 20.683594 625.601562 29.816406 C 652.371094 39.167969 674.371094 58.6875 686.828125 84.144531 C 699.402344 109.441406 701.320312 138.710938 692.15625 165.425781 C 682.171875 194.488281 662.089844 214.628906 634.855469 227.9375 L 682.621094 296.757812 C 689.351562 306.539062 697.511719 317.644531 703.277344 328 C 704.5 330.894531 704.789062 334.195312 704.285156 337.285156 C 703.476562 342.261719 699.878906 346.402344 695.304688 348.367188 C 694.40625 348.753906 691.316406 349.839844 690.515625 349.78125 C 680.839844 349.078125 643.65625 352.957031 637.882812 346.417969 C 629.363281 336.761719 618.992188 320.941406 611.484375 310.179688 L 560.878906 237.28125 L 491.390625 237.289062 L 491.390625 261.773438 L 491.484375 310.980469 C 491.5 319.125 492.144531 329.871094 490.789062 337.605469 C 487.921875 353.929688 467.675781 349.507812 456.441406 350.105469 C 440.960938 350.925781 426.984375 350.25 427.015625 331.21875 C 427.0625 301.101562 427.097656 271.042969 427.089844 240.957031 L 427.066406 206.902344 C 426.9375 177.582031 425.933594 173.164062 458.1875 173.226562 C 501.835938 173.371094 544.921875 173.195312 588.605469 173.394531 C 636.234375 173.613281 650.769531 113.457031 608.847656 92.472656 C 598.597656 87.34375 572.164062 88.863281 559.574219 88.878906 L 481.589844 89.007812 C 469.078125 89.027344 455.800781 89.539062 443.660156 88.703125 C 422.757812 86.597656 427.703125 69.476562 427.066406 54.546875 C 426.53125 42.039062 425.238281 26.203125 442.367188 25.207031 C 450.441406 24.734375 458.972656 25.050781 467.144531 25.070312 Z M 519.804688 25.09375 "/>
<path style=" stroke:none;fill-rule:nonzero;fill:rgb(99.607843%,99.607843%,99.607843%);fill-opacity:1;" d="M 210.300781 24.148438 L 252.027344 23.96875 C 266.292969 24.015625 278.746094 28.742188 274.988281 45.082031 C 273.769531 50.390625 248.972656 71.15625 243.683594 76.144531 L 168.652344 147.273438 L 170.867188 150.273438 C 198.578125 188.222656 227.136719 230.042969 253.921875 268.730469 L 279.023438 305.132812 C 286.363281 315.824219 308.136719 340.082031 283.046875 348.707031 C 277.808594 350.503906 265.957031 349.621094 259.359375 349.523438 C 250.359375 349.394531 234.339844 352.039062 227.410156 345.222656 C 218.589844 334.800781 210.863281 322.679688 203.058594 311.492188 L 153.210938 239.914062 C 147.28125 230.648438 139.785156 220.714844 133.570312 211.480469 C 130.5 206.921875 122.839844 195.632812 119.671875 192.210938 C 107.355469 203.828125 88.242188 220.816406 77.214844 232.78125 C 77.851562 253.449219 77.554688 274.1875 77.566406 294.863281 C 77.570312 307.085938 78.335938 319.804688 77.398438 331.960938 C 77.121094 335.550781 76.546875 339.613281 74.953125 342.886719 C 73.484375 345.914062 70.117188 348.039062 67.003906 349.066406 C 62.792969 350.457031 33.527344 350.632812 27.898438 350 C 25.359375 349.714844 22.863281 349.058594 20.589844 347.882812 C 18.386719 346.746094 14.953125 344.199219 14.242188 341.742188 C 11.40625 331.949219 11.886719 229.167969 12.734375 214.003906 C 12.910156 210.890625 13.046875 206.8125 14.609375 204.078125 C 18.519531 197.257812 33.695312 184.523438 39.878906 178.617188 C 69.261719 150.910156 98.8125 123.382812 128.535156 96.039062 L 174.195312 53.519531 C 183.0625 45.238281 191.945312 36.710938 201.128906 28.792969 C 204.507812 25.878906 205.964844 25.324219 210.300781 24.148438 Z M 210.300781 24.148438 "/>
<path style=" stroke:none;fill-rule:nonzero;fill:rgb(99.607843%,99.607843%,99.607843%);fill-opacity:1;" d="M 348.402344 173.449219 C 364.4375 174.21875 393.09375 167.191406 393.113281 190.933594 C 393.136719 220.1875 393.136719 249.449219 393.164062 278.703125 L 393.179688 313.898438 C 393.175781 330.425781 397.117188 349.394531 374.9375 350.085938 C 357.972656 349.324219 328.953125 356.558594 328.929688 332.34375 C 328.789062 286.5625 328.90625 240.769531 328.886719 194.984375 C 328.878906 179.808594 332.554688 173.960938 348.402344 173.449219 Z M 348.402344 173.449219 "/>
<path style=" stroke:none;fill-rule:nonzero;fill:rgb(99.607843%,99.607843%,99.607843%);fill-opacity:1;" d="M 339.550781 25.546875 C 350.523438 24.320312 372.445312 24.492188 383.230469 26.378906 C 394.875 28.417969 393.429688 48.605469 393.183594 57.792969 C 392.582031 80.152344 394.445312 103.988281 392.125 126.207031 C 391.710938 130.1875 385.472656 134.386719 382.320312 136.003906 C 371.800781 138.167969 351.183594 137.632812 340.253906 135.707031 C 334.074219 134.617188 329.300781 127.847656 329.121094 121.515625 C 328.496094 99.425781 328.992188 77.070312 328.84375 54.945312 C 328.875 41.796875 326.386719 32.367188 339.550781 25.546875 Z M 339.550781 25.546875 "/>
<path style=" stroke:none;fill-rule:nonzero;fill:rgb(99.607843%,99.607843%,99.607843%);fill-opacity:1;" d="M 22.609375 25.574219 C 34.042969 24.058594 54.046875 24.890625 65.691406 26.03125 C 70.949219 26.546875 76.230469 33.847656 76.40625 39.15625 C 77.210938 63.078125 76.605469 87.257812 76.742188 111.210938 C 76.789062 122.933594 77.75 129.558594 66.4375 135.804688 C 56.574219 138.378906 41.875 136.578125 31.554688 137.074219 C 21.296875 137.113281 12.394531 130.425781 12.453125 119.707031 C 12.640625 94.207031 12.691406 68.714844 12.527344 43.210938 C 12.472656 33.960938 14.863281 30.101562 22.609375 25.574219 Z M 22.609375 25.574219 "/>
<path style=" stroke:none;fill-rule:nonzero;fill:rgb(99.607843%,99.607843%,99.607843%);fill-opacity:1;" d="M 1376.554688 265.878906 C 1399.574219 262.476562 1421.039062 278.257812 1424.640625 301.234375 C 1428.246094 324.214844 1412.632812 345.796875 1389.675781 349.59375 C 1366.429688 353.4375 1344.511719 337.609375 1340.863281 314.351562 C 1337.222656 291.089844 1353.242188 269.324219 1376.554688 265.878906 Z M 1376.554688 265.878906 "/>
<path style=" stroke:none;fill-rule:nonzero;fill:rgb(99.607843%,99.607843%,99.607843%);fill-opacity:1;" d="M 1255.546875 24.316406 C 1270.632812 22.015625 1285.800781 28 1295.246094 39.984375 C 1304.691406 51.964844 1306.960938 68.101562 1301.191406 82.222656 C 1295.421875 96.34375 1282.5 106.277344 1267.351562 108.222656 C 1244.324219 111.1875 1223.191406 95.082031 1219.953125 72.101562 C 1216.722656 49.125 1232.589844 27.820312 1255.546875 24.316406 Z M 1255.546875 24.316406 "/>
<path style=" stroke:none;fill-rule:nonzero;fill:rgb(99.607843%,99.607843%,99.607843%);fill-opacity:1;" d="M 1133.726562 24.308594 C 1148.855469 22.027344 1164.042969 28.074219 1173.460938 40.132812 C 1182.878906 52.191406 1185.0625 68.382812 1179.171875 82.503906 C 1173.28125 96.621094 1160.238281 106.46875 1145.039062 108.273438 C 1122.042969 111.003906 1101.117188 94.789062 1098.027344 71.859375 C 1094.929688 48.925781 1110.824219 27.757812 1133.726562 24.308594 Z M 1133.726562 24.308594 "/>
<path style=" stroke:none;fill-rule:nonzero;fill:rgb(99.607843%,99.607843%,99.607843%);fill-opacity:1;" d="M 1376.335938 24.3125 C 1399.519531 20.765625 1421.175781 36.707031 1424.667969 59.882812 C 1428.160156 83.058594 1412.160156 104.664062 1388.957031 108.097656 C 1365.835938 111.523438 1344.300781 95.597656 1340.820312 72.5 C 1337.34375 49.398438 1353.230469 27.84375 1376.335938 24.3125 Z M 1376.335938 24.3125 "/>
<path style=" stroke:none;fill-rule:nonzero;fill:rgb(99.607843%,99.607843%,99.607843%);fill-opacity:1;" d="M 1376.371094 145.097656 C 1399.546875 141.570312 1421.1875 157.515625 1424.667969 180.683594 C 1428.152344 203.855469 1412.152344 225.449219 1388.960938 228.882812 C 1365.835938 232.304688 1344.300781 216.371094 1340.828125 193.269531 C 1337.351562 170.164062 1353.257812 148.609375 1376.371094 145.097656 Z M 1376.371094 145.097656 "/>
<path style=" stroke:none;fill-rule:nonzero;fill:rgb(99.607843%,99.607843%,99.607843%);fill-opacity:1;" d="M 1255.566406 145.070312 C 1278.765625 141.546875 1300.414062 157.519531 1303.871094 180.707031 C 1307.328125 203.898438 1291.28125 225.484375 1268.0625 228.867188 C 1244.941406 232.234375 1223.453125 216.28125 1220.019531 193.191406 C 1216.574219 170.101562 1232.476562 148.582031 1255.566406 145.070312 Z M 1255.566406 145.070312 "/>
</g>
</svg>
