<?xml version="1.0" encoding="UTF-8"?>
<svg xmlns="http://www.w3.org/2000/svg" xmlns:xlink="http://www.w3.org/1999/xlink" width="1448px" height="378px" viewBox="0 0 1705 378" version="1.1">
<g id="surface1">
<path style=" stroke:none;fill-rule:nonzero;fill:rgb(0%,27.450982%,57.254905%);fill-opacity:1;" d="M 1004.910156 34.332031 C 1005.375 34.265625 1005.839844 34.210938 1006.308594 34.164062 C 1014.683594 33.292969 1057.78125 32.683594 1060.738281 37.011719 C 1070.695312 51.613281 1086.636719 92.917969 1093.605469 109.457031 L 1142.199219 225 C 1147.996094 238.785156 1187.664062 328.738281 1188.195312 337.183594 C 1188.453125 341.308594 1187.355469 345.269531 1184.574219 348.382812 C 1180.453125 352.988281 1175.625 352.949219 1169.882812 353.28125 C 1152.15625 354.296875 1133.910156 353.46875 1116.109375 353.472656 L 1011.484375 353.453125 L 928.574219 353.453125 C 913.398438 353.476562 871.199219 359.394531 871.390625 339.722656 C 871.265625 333.011719 874.054688 326.8125 876.75 320.894531 C 891.046875 289.535156 884.484375 289.324219 920.257812 289.226562 C 932.847656 289.253906 945.433594 289.175781 958.023438 288.980469 L 1098.558594 288.796875 L 1029.886719 123 C 1016.199219 154.296875 1004.050781 186.082031 990.339844 217.761719 C 984.613281 228.058594 975.273438 261.664062 966.40625 267.671875 C 961.96875 270.671875 901.167969 276.316406 906.746094 255.242188 C 910.859375 239.738281 918.011719 224.515625 924.039062 210.40625 L 955.53125 136.710938 L 982.996094 72.390625 C 987.277344 62.386719 991.613281 51.710938 996.234375 41.847656 C 997.992188 38.105469 1001.394531 36.28125 1004.910156 34.332031 Z M 1004.910156 34.332031 "/>
<path style=" stroke:none;fill-rule:nonzero;fill:rgb(0%,27.450982%,57.254905%);fill-opacity:1;" d="M 578.546875 35.167969 C 586.5625 34.675781 598.679688 35.027344 606.945312 35.019531 L 661.027344 34.988281 C 685.34375 34.980469 738.746094 32.371094 760.109375 39.503906 C 786.488281 48.4375 808.269531 67.433594 820.714844 92.351562 C 833.09375 117.148438 835.101562 145.851562 826.277344 172.125 C 816.414062 201.417969 797.203125 220.460938 770.050781 233.933594 C 785.070312 255.289062 799.96875 276.738281 814.734375 298.273438 C 829.117188 319.144531 859.84375 351.742188 814.410156 353.75 C 766.90625 355.851562 772.894531 351.199219 747.558594 314.753906 L 697.609375 242.890625 L 629.273438 242.890625 L 629.335938 302 C 629.339844 307.851562 629.261719 315.535156 629.347656 320.917969 C 629.769531 347.300781 629.40625 355.34375 600.199219 353.660156 C 584.226562 352.738281 567.039062 358.894531 566.828125 334.183594 C 566.441406 289.0625 567.191406 244.445312 566.6875 199.375 C 567.121094 191.863281 568.578125 184.121094 577.054688 182.132812 C 588.320312 179.488281 601.699219 180.398438 613.3125 180.414062 L 691.261719 180.527344 C 706.5 180.550781 732.925781 182.546875 745.863281 176.246094 C 755.710938 171.398438 763.273438 162.898438 766.941406 152.554688 C 770.589844 142.125 769.859375 130.664062 764.910156 120.78125 C 760.132812 110.910156 751.648438 103.328125 741.300781 99.6875 C 726.335938 94.582031 630.347656 98.960938 609.898438 97.539062 C 599.273438 97.054688 585.890625 98.882812 575.78125 95.769531 C 564.257812 91.644531 566.539062 73.210938 566.699219 63.519531 C 566.933594 49.511719 564.402344 41.582031 578.546875 35.167969 Z M 578.546875 35.167969 "/>
<path style=" stroke:none;fill-rule:nonzero;fill:rgb(0%,27.450982%,57.254905%);fill-opacity:1;" d="M 353.585938 34.371094 C 367.148438 34.4375 380.71875 34.113281 394.28125 34.175781 C 400.867188 34.203125 408.464844 34.03125 413.445312 39.039062 C 416.429688 42.035156 418.070312 46.113281 417.988281 50.335938 C 417.9375 53.183594 417.023438 56.65625 415.03125 58.6875 C 405.714844 68.1875 394.894531 77.378906 385.121094 86.585938 L 313.167969 154.710938 L 400.046875 278.871094 C 411.542969 295.570312 424.53125 313.027344 434.734375 330.0625 C 443.371094 344.480469 426.980469 355.632812 413.023438 353.277344 C 402.886719 351.5625 389.292969 354.515625 378.929688 352.773438 C 375.851562 352.257812 372.875 350.972656 370.746094 348.5625 C 361.84375 338 354.128906 326.058594 346.214844 314.679688 L 298.542969 246.074219 L 265.386719 198.484375 L 223.714844 238.070312 C 223.730469 255.214844 226.0625 335.359375 221.246094 346.460938 C 220.019531 349.285156 217.300781 351.214844 214.488281 352.289062 C 207.859375 354.828125 175.089844 354.742188 168.503906 351.703125 C 166.585938 350.816406 163.296875 348.714844 162.59375 346.613281 C 161.277344 342.6875 160.828125 338.070312 160.601562 333.953125 C 159.632812 316.347656 160.558594 298.265625 160.492188 280.609375 C 160.421875 261.363281 159.402344 241.785156 160.300781 222.570312 C 160.460938 219.15625 160.5 214.273438 162.097656 211.230469 C 167.425781 201.089844 263.53125 114.691406 279.265625 100.039062 L 321.804688 60.429688 C 328.886719 53.835938 345.136719 36.957031 353.585938 34.371094 Z M 353.585938 34.371094 "/>
<path style=" stroke:none;fill-rule:nonzero;fill:rgb(0%,27.450982%,57.254905%);fill-opacity:1;" d="M 482.671875 180.886719 C 493.433594 180.070312 515.296875 178.570312 524.796875 182.726562 C 528.238281 184.230469 530.527344 187.074219 531.855469 190.542969 C 534.074219 196.335938 533.554688 321.957031 532.886719 337.429688 C 532.78125 339.878906 532.597656 342.351562 531.566406 344.613281 C 529.339844 349.472656 525.820312 351.578125 520.957031 353.335938 C 511.871094 354.566406 487.820312 355.351562 479.273438 351.820312 C 475.570312 350.289062 473.203125 347.636719 471.71875 343.933594 C 469.328125 337.945312 469.789062 194.394531 471.867188 189.75 C 474.015625 184.957031 477.960938 182.695312 482.671875 180.886719 Z M 482.671875 180.886719 "/>
<path style=" stroke:none;fill-rule:nonzero;fill:rgb(0%,27.450982%,57.254905%);fill-opacity:1;" d="M 172.207031 35.15625 C 183.519531 34.976562 203.738281 32.671875 213.734375 36.492188 C 217.226562 37.828125 219.917969 40.839844 221.398438 44.214844 C 223.921875 49.96875 224.058594 129.1875 221.667969 134.976562 C 219.605469 139.964844 215.972656 142.144531 211.167969 144.136719 C 202.222656 145.34375 178.210938 146.042969 169.8125 143 C 166.113281 141.660156 163.308594 138.734375 161.6875 135.183594 C 159.390625 130.144531 159.277344 50.269531 161.519531 44.621094 C 163.519531 39.578125 167.429688 37.207031 172.207031 35.15625 Z M 172.207031 35.15625 "/>
<path style=" stroke:none;fill-rule:nonzero;fill:rgb(0%,27.450982%,57.254905%);fill-opacity:1;" d="M 482.855469 35.113281 C 493.578125 34.96875 514.269531 32.652344 524.039062 36.574219 C 527.578125 37.996094 530.195312 41.023438 531.65625 44.496094 C 534.175781 50.484375 533.949219 129.945312 531.503906 135.585938 C 529.367188 140.527344 525.296875 142.570312 520.511719 144.402344 C 509.277344 144.578125 489.136719 146.960938 479.15625 142.703125 C 475.601562 141.183594 473.179688 138.324219 471.808594 134.742188 C 469.128906 127.753906 469.636719 49.207031 472.085938 43.746094 C 474.210938 39.007812 478.195312 36.875 482.855469 35.113281 Z M 482.855469 35.113281 "/>
<path style=" stroke:none;fill-rule:nonzero;fill:rgb(0%,27.450982%,57.254905%);fill-opacity:1;" d="M 1501.589844 270.886719 C 1524.367188 269.917969 1543.648438 287.550781 1544.707031 310.332031 C 1545.765625 333.109375 1528.207031 352.457031 1505.4375 353.605469 C 1482.535156 354.757812 1463.0625 337.082031 1461.996094 314.175781 C 1460.929688 291.273438 1478.679688 271.863281 1501.589844 270.886719 Z M 1501.589844 270.886719 "/>
<path style=" stroke:none;fill-rule:nonzero;fill:rgb(52.549022%,63.137257%,77.64706%);fill-opacity:1;" d="M 1498.476562 152.734375 C 1521.203125 150.042969 1541.800781 166.300781 1544.464844 189.027344 C 1547.128906 211.753906 1530.84375 232.332031 1508.117188 234.972656 C 1485.429688 237.605469 1464.894531 221.355469 1462.238281 198.667969 C 1459.574219 175.976562 1475.800781 155.421875 1498.476562 152.734375 Z M 1498.476562 152.734375 "/>
<path style=" stroke:none;fill-rule:nonzero;fill:rgb(0%,27.450982%,57.254905%);fill-opacity:1;" d="M 1379.691406 152.769531 C 1402.429688 149.863281 1423.191406 165.984375 1426.015625 188.730469 C 1428.84375 211.476562 1412.652344 232.1875 1389.898438 234.933594 C 1367.253906 237.664062 1346.667969 221.570312 1343.863281 198.933594 C 1341.046875 176.300781 1357.074219 155.660156 1379.691406 152.769531 Z M 1379.691406 152.769531 "/>
<path style=" stroke:none;fill-rule:nonzero;fill:rgb(0%,27.450982%,57.254905%);fill-opacity:1;" d="M 1259.128906 34.535156 C 1281.5625 31.09375 1302.585938 46.359375 1306.257812 68.757812 C 1309.917969 91.160156 1294.867188 112.335938 1272.507812 116.230469 C 1257.84375 118.785156 1242.933594 113.265625 1233.460938 101.777344 C 1223.996094 90.289062 1221.429688 74.597656 1226.734375 60.6875 C 1232.046875 46.777344 1244.417969 36.792969 1259.128906 34.535156 Z M 1259.128906 34.535156 "/>
<path style=" stroke:none;fill-rule:nonzero;fill:rgb(80.784315%,85.09804%,90.588236%);fill-opacity:1;" d="M 1497.417969 34.496094 C 1519.9375 31.242188 1540.859375 46.78125 1544.257812 69.28125 C 1547.652344 91.777344 1532.253906 112.800781 1509.78125 116.34375 C 1487.097656 119.917969 1465.84375 104.34375 1462.421875 81.640625 C 1458.992188 58.933594 1474.699219 37.78125 1497.417969 34.496094 Z M 1497.417969 34.496094 "/>
<path style=" stroke:none;fill-rule:nonzero;fill:rgb(52.549022%,63.137257%,77.64706%);fill-opacity:1;" d="M 1379.035156 34.503906 C 1401.511719 31.261719 1422.402344 46.746094 1425.832031 69.195312 C 1429.269531 91.644531 1413.976562 112.671875 1391.554688 116.304688 C 1368.863281 119.984375 1347.515625 104.453125 1344.035156 81.722656 C 1340.554688 58.992188 1356.273438 37.785156 1379.035156 34.503906 Z M 1379.035156 34.503906 "/>
</g>
</svg>
